<?xml version="1.0" encoding="UTF-8"?>
<svg id="Layer_2" data-name="Layer 2" xmlns="http://www.w3.org/2000/svg" viewBox="0 0 49.2 44.2">
  <defs>
    <style>
      .cls-1 {
        fill: #4d4c4c;
      }

      .cls-2 {
        fill: #f2655c;
      }

      .cls-3 {
        fill: #fff9f5;
      }

      .cls-4 {
        fill: #0eb4db;
      }

      .cls-5 {
        fill: #f15b51;
      }

      .cls-6 {
        fill: #ffd765;
      }
    </style>
  </defs>
  <g id="Layer_1-2" data-name="Layer 1">
    <g>
      <path class="cls-4" d="M11.15,19.81c-.44,3.9-1,11.81-6.34,11.8-2.44,0-3.67-1.55-4.81-3.5v-2.19c.7-1.09,1.37-2.45,2.4-3.28,2.12-1.7,5.64-2.17,8.09-3.28l.66.44Z"/>
      <path class="cls-6" d="M46.78,22.65c-.29-.23-1.63-.94-2.04-1.13-1.93-.92-4.1-1.29-6.05-2.15.58-5.14-6.1-7.74-9.06-3.48-.58.83-1.56,3.23-.34,3.82,1.33.64,1.28-1.42,1.57-2.15.97-2.44,4.66-2.43,5.69-.1.37.84.05,2.42,1.48,2.35.43,3.92.99,11.81,6.34,11.8-.5,1.61-1.65,3.31-2.73,4.59-9,10.65-25.11,10.65-34.11,0-1.06-1.25-2.3-3.03-2.73-4.59,5.34,0,5.9-7.91,6.34-11.8,1.43.07,1.11-1.5,1.48-2.35,1.03-2.33,4.72-2.34,5.69.1.29.73.24,2.79,1.57,2.15,1.23-.59.24-2.99-.34-3.82-2.96-4.25-9.64-1.65-9.06,3.48-2.45,1.11-5.97,1.58-8.09,3.28.04-7.82,3.83-15.23,10.51-19.33C22.39-2.5,34.36-.48,41.54,7.89c3.51,4.1,5.12,9.4,5.24,14.76ZM11.59,28.99c.02.07-.02.15,0,.22,4.21,12.27,21.81,12.25,26.01,0,.02-.06-.02-.15,0-.22.36-1.17.92-2.12.66-3.5H10.93c-.27,1.38.29,2.32.66,3.5Z"/>
      <path class="cls-4" d="M46.78,22.65c1,.79,2.32,2.75,2.41,4.05.19,2.62-2.32,4.91-4.82,4.91-5.35,0-5.91-7.89-6.34-11.8l.66-.44c1.95.86,4.12,1.23,6.05,2.15.41.19,1.74.9,2.04,1.13Z"/>
      <path class="cls-1" d="M10.49,19.38c-.58-5.14,6.1-7.74,9.06-3.48.58.83,1.56,3.23.34,3.82-1.33.64-1.28-1.42-1.57-2.15-.97-2.44-4.66-2.43-5.69-.1-.37.84-.05,2.42-1.48,2.35l-.66-.44Z"/>
      <path class="cls-2" d="M36.73,28.99l.87.22c-4.2,12.25-21.81,12.27-26.01,0l.66-.22h24.48Z"/>
      <path class="cls-3" d="M11.59,28.99c-.36-1.17-.92-2.12-.66-3.5h27.33c.27,1.38-.29,2.32-.66,3.5H11.59Z"/>
      <path class="cls-1" d="M38.69,19.38l-.66.44c-1.43.07-1.11-1.5-1.48-2.35-1.03-2.33-4.72-2.34-5.69.1-.29.73-.24,2.79-1.57,2.15-1.23-.59-.24-2.99.34-3.82,2.96-4.25,9.64-1.65,9.06,3.48Z"/>
      <path class="cls-5" d="M37.6,28.99c-.02.07.02.15,0,.22l-.87-.22h.87Z"/>
      <path class="cls-5" d="M12.24,28.99l-.66.22c-.02-.06.02-.15,0-.22h.66Z"/>
    </g>
  </g>
</svg>