<?xml version="1.0" encoding="UTF-8"?>
<svg id="Layer_2" data-name="Layer 2" xmlns="http://www.w3.org/2000/svg" viewBox="0 0 32.09 42.84">
  <defs>
    <style>
      .cls-1 {
        fill: #fbaf2f;
      }

      .cls-2 {
        fill: #f2692b;
      }
    </style>
  </defs>
  <g id="Layer_1-2" data-name="Layer 1">
    <g>
      <path class="cls-2" d="M16.16.01c.11-.02.21-.02.32,0,.43.04,1.44.93,1.82,1.24,7.53,6.14,14.23,15.89,13.78,26.03-.63,14.37-18.44,21.18-27.96,9.97C-2.98,28.9.07,17.47,5.96,9.45c.1-.14.68-.96.77-.94.18.13.22.37.29.57.2.59.7,3.46,1,3.68.06.04.11.07.17.02C10.75,8.76,13.06,4.59,15.46.47c.14-.21.45-.41.7-.45ZM15.92,12.3c-.12.03-.75.51-.91.62-6.94,4.95-14.23,15.39-8.22,23.7,6.44,8.9,21.13,4.26,20.7-6.86-.26-6.57-4.84-12.49-9.84-16.34-.33-.26-1.16-.94-1.5-1.08-.09-.04-.12-.06-.23-.03Z"/>
      <path class="cls-1" d="M15.92,12.3c.11-.03.14,0,.23.03.33.15,1.16.83,1.5,1.08,5,3.85,9.59,9.77,9.84,16.34.44,11.12-14.26,15.76-20.7,6.86-6.01-8.31,1.28-18.74,8.22-23.7.16-.11.79-.59.91-.62Z"/>
    </g>
  </g>
</svg>