<?xml version="1.0" encoding="UTF-8"?>
<svg id="Layer_2" data-name="Layer 2" xmlns="http://www.w3.org/2000/svg" viewBox="0 0 37.19 41.04">
  <defs>
    <style>
      .cls-1 {
        fill: #fff;
      }

      .cls-2 {
        fill: #8f80b3;
      }

      .cls-3 {
        fill: #a395c7;
      }
    </style>
  </defs>
  <g id="Layer_1-2" data-name="Layer 1">
    <g id="phil">
      <g>
        <g>
          <path class="cls-3" d="M6.38,40.54s-.08,0-.12-.01c-.6-.14-.78-.49-.93-.88-.05-.14-.04-.28.02-.41v-.06c.03-3.31.02-6.9-.05-10.66-2.93-2.86-4.63-6.74-4.81-10.95,0-.09.02-.17.06-.25v-.06c0-.34,0-.69,0-1.03,0,0,0-.04,0-.06-.04-.08-.06-.16-.05-.25C.91,6.83,7.71.5,17.03.5c1.11,0,2.25.09,3.38.28,7.19,1.17,12.65,6.87,12.99,13.56,0,.05,0,.11-.02.16-.05.2-.05.48-.04.76,0,0,0,.27,0,.29.04.08.06.17.05.25-.02.38-.07.76-.12,1.14-.04.31-.09.63-.11.94.43.98.89,1.95,1.34,2.92.48,1.03.96,2.05,1.42,3.09l.15.32c.38.8.68,1.51.61,2.05-.04.24-.19.6-.45.8,0,0-.46.29-.7.29h-2.89c0,.38,0,.77.02,1.18.06,1.98.13,4.23-1.79,5.54-.47.32-1.05.54-1.8.68-.03,0-.06,0-.09,0-.1,0-.2-.03-.28-.09v.03c-.31,0-.65-.01-1.01-.02-.52-.02-1.09-.03-1.63-.03-.76,0-1.33.03-1.74.1-.73.12-.93.35-1.05,1.24-.1.75-.08,1.6-.06,2.42,0,0,.01.76.01.78.05.1.07.22.04.34-.1.41-.28.84-.95,1-.04,0-.08.01-.12.01H6.38ZM13.88,5.31c-1.36,0-2.76.56-3.67,1.47-.1.1-.23.3-.36.48-.24.35-.37.53-.52.64-.16.11-.35.16-.52.2-.07.02-.14.03-.2.06-.75.33-1.38.96-1.72,1.73-.05.11-.08.25-.12.39-.06.2-.11.4-.19.55-.09.17-.25.34-.39.51-.1.11-.19.21-.26.31-1,1.49-1.26,3.64-.63,5.21.32.81,1.03,1.85,2.56,2.2.09.02.28.04.46.06.44.05.61.07.74.13.11.05.16.11.35.34.09.11.2.24.25.29.25.22.5.34.82.49.12.05.23.11.36.17.07.04.14.09.19.16.14.2.14.4.14.52,0,.21,0,.4,0,.59,0,.34-.02.67.04.94.21.94.82,1.53,1.59,1.53.4,0,.82-.16,1.22-.45.47-.34.89-.76,1.35-1.2.54-.52,1.1-1.07,1.74-1.49.08-.05.18-.08.27-.08.01,0,.03,0,.04,0,.68.05,1.37.1,2.04.1,1.72,0,2.9-.37,3.81-1.21.07-.07.21-.23.34-.4.33-.41.43-.51.58-.58.16-.07.38-.1.74-.14.17-.02.33-.04.44-.06,1.53-.36,2.98-1.56,3.6-2.99.34-.78.59-1.97-.13-3.23-.02-.03-.06-.07-.09-.11-.1-.11-.18-.21-.23-.35-.06-.19-.03-.4,0-.62.01-.1.03-.19.02-.27-.06-1.06-.93-2.26-1.98-2.73-.08-.04-.23-.08-.37-.12-.28-.08-.44-.13-.56-.21-.11-.07-.15-.14-.34-.45-.09-.15-.19-.31-.24-.38-.6-.72-1.82-1.38-2.72-1.46-.04,0-.09,0-.13,0,0,0-.41.01-.5.01-.16,0-.28-.01-.4-.03-.19-.04-.39-.13-.61-.22-.16-.07-.33-.15-.48-.19-.51-.13-1-.2-1.48-.2-.64,0-1.27.11-1.94.34-.04.01-.08.04-.13.06-.14.08-.32.17-.54.18h0c-.23,0-.45-.09-.83-.25-.16-.07-.32-.14-.43-.16-.31-.08-.65-.11-1-.11Z"/>
          <path class="cls-1" d="M17.03,1c1.08,0,2.18.09,3.3.27,6.53,1.07,12.22,6.25,12.57,13.09-.09.34-.06.76-.05,1.12,0,.09-.03.23.05.29-.04.73-.2,1.47-.24,2.19.91,2.05,1.9,4.07,2.81,6.12.23.52.79,1.57.72,2.09-.02.16-.13.38-.26.47-.04.03-.36.18-.39.18h-3.37c-.15,2.27.64,5.3-1.57,6.81-.48.33-1.05.5-1.61.61-.03-.05-.09-.06-.15-.06-.05,0-.09,0-.13,0,0,0,0,0,0,0-.73,0-1.71-.06-2.64-.06-.68,0-1.33.03-1.83.11-1.04.17-1.33.68-1.46,1.67-.14,1.02-.06,2.17-.05,3.21,0,.09-.03.23.05.29-.09.37-.21.54-.57.63H6.38c-.36-.08-.44-.23-.57-.57.09-.05.05-.2.05-.29.04-3.62.01-7.28-.05-10.89-2.95-2.8-4.63-6.68-4.8-10.75.09-.05.05-.2.05-.29,0-.35,0-.7,0-1.05,0-.09.03-.23-.05-.29C1.42,6.63,8.46,1,17.03,1M16.11,5.33c-.2,0-.83-.33-1.11-.4-.36-.09-.73-.13-1.12-.13-1.47,0-3.02.61-4.02,1.62-.23.24-.65.95-.82,1.06-.14.1-.44.13-.62.21-.89.38-1.59,1.11-1.98,1.99-.12.27-.19.7-.3.9-.12.23-.46.53-.63.78-1.82,2.71-1.44,7.34,2.23,8.18.24.05.98.1,1.1.16.03.02.39.46.49.55.41.36.81.49,1.28.73.06.09.05.19.05.28.02.52-.06,1.09.05,1.59.27,1.22,1.1,1.92,2.08,1.92.49,0,1.01-.17,1.52-.55,1.07-.78,1.95-1.93,3.07-2.67.69.05,1.38.11,2.07.11,1.51,0,2.96-.26,4.15-1.34.17-.16.69-.85.78-.89.17-.07.82-.1,1.09-.17,2.91-.68,5.46-4.05,3.79-6.96-.06-.11-.25-.29-.27-.35-.05-.16.05-.54.04-.77-.07-1.29-1.11-2.64-2.27-3.16-.21-.1-.74-.21-.86-.29-.04-.02-.36-.6-.47-.73-.67-.81-2.01-1.54-3.06-1.64-.06,0-.12,0-.18,0-.16,0-.33.01-.5.01-.11,0-.21,0-.3-.02-.28-.06-.71-.31-1.06-.4-.55-.14-1.08-.21-1.61-.21-.7,0-1.39.12-2.1.36-.17.06-.35.21-.52.21,0,0,0,0,0,0M17.03,0h0C7.42,0,.42,6.53,0,15.88c0,.13.01.25.05.37,0,.32,0,.65,0,.97-.04.12-.06.24-.05.36.18,4.27,1.88,8.21,4.81,11.14.06,3.68.08,7.18.05,10.42-.07.21-.07.45.01.67.18.47.44,1,1.28,1.2.08.02.15.03.23.03h15.82c.08,0,.15,0,.23-.03.94-.22,1.2-.89,1.32-1.37.04-.19.03-.38-.03-.55,0-.23,0-.46-.01-.7-.02-.8-.04-1.63.06-2.35.1-.73.17-.74.64-.82.38-.06.93-.1,1.66-.1.54,0,1.1.02,1.62.03.35.01.68.02.98.02.1.04.21.05.32.05.06,0,.12,0,.18-.02.83-.16,1.46-.4,1.99-.76,2.14-1.46,2.07-3.96,2.01-5.96,0-.23-.01-.45-.02-.67h2.38c.44,0,1-.39,1.01-.4.37-.29.58-.77.63-1.12.1-.67-.24-1.45-.65-2.33-.05-.11-.1-.22-.14-.3-.46-1.05-.95-2.1-1.43-3.11-.43-.91-.87-1.85-1.28-2.78.02-.25.06-.51.1-.78.05-.38.11-.77.13-1.18,0-.13-.01-.26-.05-.37v-.2c-.01-.22-.02-.49.02-.62.03-.1.04-.21.03-.31-.35-6.92-5.99-12.81-13.41-14.02-1.16-.19-2.32-.28-3.46-.28h0ZM16.11,6.33s.03,0,.05,0c.33-.01.58-.15.75-.24.03-.01.05-.03.08-.04.59-.2,1.17-.3,1.75-.3.45,0,.89.06,1.36.18.09.02.26.1.4.16.23.1.47.2.71.25.15.03.31.04.5.04.09,0,.19,0,.29,0,.07,0,.14,0,.21,0,.03,0,.06,0,.09,0,.77.07,1.86.66,2.38,1.28.04.05.12.2.2.32.21.34.29.47.49.6.19.13.4.19.7.27.11.03.23.06.3.09.86.39,1.63,1.45,1.68,2.3,0,.04-.01.11-.02.18-.03.25-.07.53.02.83.07.24.21.39.33.53.02.02.04.04.05.06.6,1.07.38,2.08.09,2.75-.56,1.3-1.87,2.38-3.26,2.71-.09.02-.23.03-.38.05-.4.04-.66.08-.88.17-.27.12-.41.29-.77.72-.12.14-.23.28-.3.35-.82.75-1.86,1.07-3.47,1.07-.65,0-1.33-.05-1.98-.1-.03,0-.05,0-.08,0-.2,0-.4.06-.56.16-.69.45-1.26,1.01-1.82,1.55-.44.43-.86.83-1.29,1.15-.32.23-.64.35-.93.35-.53,0-.94-.43-1.1-1.14-.05-.22-.04-.51-.03-.82,0-.2.01-.39,0-.59,0-.17,0-.49-.23-.82-.09-.14-.22-.25-.37-.33-.13-.06-.25-.12-.37-.18-.29-.14-.5-.24-.71-.41-.03-.03-.12-.14-.2-.23-.21-.25-.31-.37-.52-.47-.21-.1-.43-.13-.9-.18-.16-.02-.32-.03-.41-.05-1.05-.24-1.79-.88-2.2-1.9-.57-1.43-.33-3.39.59-4.75.06-.08.14-.17.22-.26.17-.19.34-.38.46-.6.11-.21.18-.44.24-.66.03-.11.07-.25.1-.32.29-.66.82-1.2,1.46-1.47.03,0,.08-.02.12-.03.2-.05.45-.12.68-.28.22-.15.37-.37.64-.76.09-.13.25-.36.31-.42.8-.8,2.1-1.32,3.31-1.32.31,0,.61.03.88.1.09.02.22.08.35.14.42.18.7.28.99.28h0Z"/>
        </g>
        <g>
          <path class="cls-1" d="M10.71,22.87v-1.85c0-.06-.08-.02-.1-.03-.47-.24-.87-.37-1.28-.73-.11-.09-.46-.53-.49-.55-.12-.06-.86-.1-1.1-.16-3.66-.83-4.04-5.46-2.23-8.18.17-.25.51-.55.63-.78.11-.2.18-.63.3-.9.39-.88,1.09-1.61,1.98-1.99.18-.08.49-.11.62-.21.16-.12.58-.83.82-1.06,1.26-1.27,3.39-1.91,5.14-1.49.28.07.93.4,1.12.4.17,0,.35-.16.52-.21,1.24-.42,2.43-.48,3.7-.15.35.09.78.35,1.06.4s.67,0,.97.02c1.05.09,2.39.83,3.06,1.64.11.13.44.7.47.73.12.08.65.19.86.29,1.16.52,2.19,1.87,2.27,3.16.01.23-.09.61-.04.77.02.07.21.24.27.35,1.67,2.91-.88,6.28-3.79,6.96-.27.06-.92.09-1.09.17-.09.04-.61.73-.78.89-1.73,1.59-4.04,1.41-6.23,1.24-1.13.74-2,1.89-3.07,2.67-1.54,1.12-3.19.44-3.6-1.38ZM20.16,20c.54-.04,1.38-.3,1.84-.58.63-.38,1.01-.98,1.37-1.6,2.24.19,4.42-1.26,4.82-3.51-.61.3-1.21.43-1.9.36-.59-.05-1.76-.4-1.37-1.21.32-.67,1.02-.17,1.49-.1.43.06.89-.02,1.24-.3.38-.31-.44-.5-.49-.71-.01-.07.13-.52.15-.67.11-1.19-.5-2.04-1.67-2.27.15.62.09,2.61-.97,2.2-.66-.26-.3-1.43-.28-1.96.05-1.68-1.05-2.59-2.69-2.48-.18.01-.47.12-.62.1s-.87-.46-1.17-.56c-.77-.25-2.41-.34-2.99.33-.28.32-.3.7-.46,1.05-.63,1.37-1.62,2.65-2.54,3.83v.1s.8,2.28.8,2.28c.13.65-.7,1.07-1.14.56-.12-.15-.22-.45-.3-.64-.25-.62-.43-1.27-.7-1.88-.63-.04-2.43.16-2.04-.99.25-.73,1.87-.29,2.44-.48.6-.89,1.34-1.75,1.86-2.68.4-.74.69-1.42-.46-1.54-1.25-.14-2.64.24-3.46,1.22-.25.3-.5.94-.71,1.12-.28.24-1.02.32-1.42.56-.35.21-.67.58-.8.97-.08.24-.06.55-.14.75-.04.1-.73.75-.89.99-1.36,1.96-1.28,5.17,1.45,5.76-.18-.73-.32-2.39.18-2.98.26-.31.78-.28,1.02.03.26.33-.02.97-.05,1.36-.09,1.16.12,2.39,1.29,2.88.6.26,1.33.12,1.42.98.07.58-.07,2.24.16,2.66.25.44.73.08,1.01-.12,1.03-.77,2.27-2.56,3.52-2.85.62-.14,1.22.01,1.83.03.42.01.95.03,1.36,0Z"/>
          <path class="cls-3" d="M18.8,20c-.61-.02-1.21-.17-1.83-.03-1.25.29-2.49,2.07-3.52,2.85-.27.21-.76.56-1.01.12-.23-.41-.1-2.07-.16-2.66-.1-.86-.82-.72-1.42-.98-1.17-.5-1.38-1.73-1.29-2.88.03-.39.31-1.03.05-1.36-.24-.31-.76-.33-1.02-.03-.5.59-.36,2.25-.18,2.98-2.73-.59-2.81-3.8-1.45-5.76.16-.24.85-.88.89-.99.08-.2.06-.51.14-.75.13-.39.45-.76.8-.97.4-.24,1.14-.33,1.42-.56.21-.18.45-.82.71-1.12.83-.98,2.21-1.36,3.46-1.22,1.15.12.86.81.46,1.54-.51.94-1.26,1.8-1.86,2.68-.57.2-2.2-.25-2.44.48-.39,1.15,1.41.95,2.04.99.27.61.45,1.27.7,1.88.08.19.17.5.3.64.44.51,1.27.09,1.14-.56l-.8-2.28v-.1c.93-1.18,1.92-2.46,2.55-3.83.16-.36.18-.74.46-1.05.58-.66,2.21-.57,2.99-.33.3.1,1.01.54,1.17.56s.45-.09.62-.1c1.64-.11,2.74.8,2.69,2.48-.02.53-.38,1.7.28,1.96,1.05.42,1.12-1.58.97-2.2,1.17.23,1.78,1.08,1.67,2.27-.01.15-.16.6-.15.67.04.21.87.4.49.71-.34.28-.8.36-1.24.3-.47-.06-1.17-.57-1.49.1-.38.82.78,1.16,1.37,1.21.69.06,1.29-.06,1.9-.36-.4,2.25-2.59,3.69-4.82,3.51-.36.62-.75,1.22-1.37,1.6-.46.29-1.3.54-1.84.58-.32-.09-.73-.06-1.07-.05-.09,0-.23-.03-.29.05ZM22.08,8.79c-.55.41-2.22,1.1-2.54,1.64-.34.57.14,1.13.77.97.26-.07,2.18-1.15,2.41-1.35.7-.58.2-1.43-.64-1.27ZM19.15,14.48c-.51-.45-1.21-.05-1.05.66.14.67.86.48.05,1.2-.38.34-1.25.8-1.51,1.15-.4.54.03,1.07.67.98s1.98-1.42,2.43-1.95c.36,0,.64.11,1.02.08.64-.05,1.96-.51,2.29-1.1.31-.55-.28-1.17-.84-.95-.14.06-.33.28-.47.37-.57.35-1.52.64-2.1.19-.2-.15-.31-.48-.49-.63Z"/>
          <path class="cls-2" d="M20.16,20c-.41.03-.94.01-1.36,0,.05-.09.2-.05.29-.05.34,0,.75-.04,1.07.05Z"/>
          <path class="cls-1" d="M19.15,14.48c.18.16.29.48.49.63.58.45,1.54.16,2.1-.19.14-.09.33-.31.47-.37.56-.23,1.15.39.84.95-.33.59-1.65,1.05-2.29,1.1-.37.03-.66-.08-1.02-.08-.45.53-1.76,1.86-2.43,1.95s-1.07-.45-.67-.98c.26-.35,1.13-.82,1.51-1.15.81-.72.09-.52-.05-1.2-.15-.72.54-1.11,1.05-.66Z"/>
          <path class="cls-1" d="M22.08,8.79c.84-.17,1.34.68.64,1.27-.23.2-2.15,1.28-2.41,1.35-.63.16-1.1-.4-.77-.97.32-.54,1.98-1.23,2.54-1.64Z"/>
        </g>
      </g>
    </g>
  </g>
</svg>