<?xml version="1.0" encoding="UTF-8"?>
<svg id="Layer_2" data-name="Layer 2" xmlns="http://www.w3.org/2000/svg" viewBox="0 0 39.59 36.18">
  <defs>
    <style>
      .cls-1 {
        fill: #fff;
      }

      .cls-2 {
        fill: #f17d8a;
        stroke: #fff;
        stroke-miterlimit: 10;
      }
    </style>
  </defs>
  <g id="Layer_1-2" data-name="Layer 1">
    <g id="pop">
      <rect class="cls-1" x="8.54" y="5.38" width="23.33" height="21.56"/>
      <path class="cls-2" d="M7.64,30.54c-2.18-.16-4.31-1.6-5.56-3.35-.97-1.35-1.42-2.84-1.5-4.51-.22-4.74.12-9.69.06-14.45.29-2.69,1.89-4.98,4.16-6.37C7.55.18,10.08.54,13.12.54c4,0,8.06-.02,12.08,0s7.35-.57,10.64,2.09c1.88,1.52,3.05,3.64,3.18,6.09.24,4.69-.19,9.58,0,14.29-.32,4.08-3.76,7.37-7.81,7.69H15.07s-.39.18-.39.18l-6.47,4.73c-.3.16-.54.05-.57-.29v-4.77ZM14.19,7.01c-.69.06-1.2.67-1.26,1.34.05,5.12-.11,10.26.08,15.36.29.87,1.15,1.06,1.94.73,4.24-2.51,8.59-4.88,12.79-7.45.87-1.06.49-1.87-.53-2.56-3.8-2.57-8.18-4.63-12.04-7.16-.3-.16-.64-.28-.99-.25Z"/>
    </g>
  </g>
</svg>