<?xml version="1.0" encoding="UTF-8"?>
<svg id="Layer_2" data-name="Layer 2" xmlns="http://www.w3.org/2000/svg" viewBox="0 0 110.2 78.32">
  <defs>
    <style>
      .cls-1 {
        fill: #f3f3f3;
      }

      .cls-2 {
        fill: #010101;
      }
    </style>
  </defs>
  <g id="Layer_1-2" data-name="Layer 1">
    <g>
      <path class="cls-2" d="M67.29,78.32l10.72-17.33H19.05C8.53,60.98,0,51.81,0,40.51v-20.03C0,9.17,8.53,0,19.05,0h72.1c10.52,0,19.05,9.17,19.05,20.47v20.03c0,11.31-8.53,20.47-19.05,20.47"/>
      <g>
        <path class="cls-1" d="M13.92,27.61c-1.88-1.23-2.98-3.24-2.98-5.54h4.42c0,1.05.6,1.59.94,1.8.63.42,1.39.44,2.09.13.99-.42,1.1-1.28,1.1-1.62,0-.37-.1-1.15-1.1-1.65-.39-.18-.81-.29-1.31-.47-.86-.29-1.83-.57-2.77-1.18-2.46-1.54-3.37-4.78-2.04-7.37,1.25-2.35,3.87-3.55,6.61-2.85,2.64.63,4.42,2.82,4.42,5.44h-4.42c0-.81-.65-1.05-1.05-1.15-.13,0-1.18-.29-1.62.6-.29.55-.08,1.25.44,1.59.5.29,1.1.5,1.75.71.6.18,1.2.37,1.83.65,2.3,1.05,3.68,3.19,3.68,5.67s-1.39,4.6-3.68,5.64c-.91.42-1.86.6-2.8.6-1.23,0-2.46-.31-3.53-1.02Z"/>
        <path class="cls-1" d="M44.99,18.65c0,5.31-4.31,9.59-9.62,9.59s-9.59-4.29-9.59-9.59,4.29-9.59,9.59-9.59,9.62,4.29,9.62,9.59ZM40.55,18.65c0-2.85-2.33-5.17-5.17-5.17s-5.17,2.33-5.17,5.17,2.33,5.17,5.17,5.17,5.17-2.33,5.17-5.17Z"/>
        <path class="cls-1" d="M48.78,25.44c-1.8-1.86-2.8-4.21-2.8-6.79s.99-4.99,2.8-6.79c3.76-3.76,9.83-3.76,13.59,0l-3.11,3.11c-2.04-2.04-5.33-2.01-7.34,0-.97,1.02-1.52,2.3-1.52,3.68s.55,2.64,1.52,3.66c2.01,2.01,5.31,2.04,7.34,0l3.11,3.14c-1.88,1.88-4.29,2.8-6.79,2.8s-4.91-.91-6.79-2.8Z"/>
        <path class="cls-1" d="M68.23,28.26h-4.42V9.05h4.42v19.21Z"/>
        <path class="cls-1" d="M81.84,25.94h-6.04l-.78,2.33h-4.68l6.53-19.18h4.18l6.19,19.18h-4.65l-.76-2.33ZM80.43,21.52l-1.52-4.65-1.59,4.65h3.11Z"/>
        <path class="cls-1" d="M101.05,28.26h-11.42V9.05h4.42v14.79h7v4.42Z"/>
      </g>
      <g>
        <path class="cls-1" d="M11.64,49.74c-1.8-1.86-2.8-4.21-2.8-6.79s.99-4.99,2.8-6.79c3.76-3.76,9.83-3.76,13.59,0l-3.11,3.11c-2.04-2.04-5.33-2.01-7.34,0-.97,1.02-1.52,2.3-1.52,3.68s.55,2.64,1.52,3.66c2.01,2.01,5.31,2.04,7.34,0l3.11,3.14c-1.88,1.88-4.29,2.8-6.79,2.8s-4.91-.91-6.79-2.8Z"/>
        <path class="cls-1" d="M30.17,52.56h-4.42v-19.21h4.42v19.21Z"/>
        <path class="cls-1" d="M37.9,47.6c-.44.08-.89.1-1.39.13v4.83h-4.42v-19.13h4.42c4.39.08,7.92,3.27,7.92,7.13,0,2.06-.91,3.87-2.48,5.15l4.23,6.85h-5.2l-3.08-4.97ZM36.52,43.28c1.91-.08,3.5-1.25,3.5-2.72s-1.59-2.61-3.5-2.69v5.41Z"/>
        <path class="cls-1" d="M49.77,49.74c-1.8-1.86-2.8-4.21-2.8-6.79s.99-4.99,2.8-6.79c3.76-3.76,9.83-3.76,13.59,0l-3.11,3.11c-2.04-2.04-5.33-2.01-7.34,0-.97,1.02-1.52,2.3-1.52,3.68s.55,2.64,1.52,3.66c2.01,2.01,5.31,2.04,7.34,0l3.11,3.14c-1.88,1.88-4.29,2.8-6.79,2.8s-4.91-.91-6.79-2.8Z"/>
        <path class="cls-1" d="M71.31,52.56c-1.96,0-3.74-.73-5.1-2.06-1.39-1.39-2.17-3.16-2.2-5.15v-12h4.42v11.97c0,.76.29,1.44.86,2.01.57.55,1.25.81,2.04.81,1.59,0,2.82-1.33,2.82-2.9v-11.89h4.42v11.86c.08,4-3.21,7.27-7.19,7.34h-.08Z"/>
        <path class="cls-1" d="M85.26,52.56h-4.42v-19.21h4.42v19.21Z"/>
        <path class="cls-1" d="M98.2,37.74h-3.68v14.82h-4.42v-14.82h-3.66v-4.44h11.76v4.44Z"/>
      </g>
    </g>
  </g>
</svg>