<?xml version="1.0" encoding="UTF-8"?>
<svg id="Layer_2" data-name="Layer 2" xmlns="http://www.w3.org/2000/svg" viewBox="0 0 45.44 45.44">
  <defs>
    <style>
      .cls-1 {
        fill: #fff;
      }

      .cls-2 {
        fill: #37bcab;
        stroke: #fff;
        stroke-miterlimit: 10;
      }
    </style>
  </defs>
  <g id="Layer_1-2" data-name="Layer 1">
    <g id="wander">
      <circle class="cls-2" cx="22.72" cy="22.72" r="22.22"/>
      <path class="cls-1" d="M25.23,35.54l-2.96-10.13-5.38,4.55c-.14.3.22,1.47.29,1.86.15.87.26,1.75.43,2.61l-1.71,1.73-.19-.02-2.59-5.79c-1.45-1.06-3.2-1.91-4.64-2.96-.16-.12-.39-.26-.47-.44.01-.11,1.71-1.3,1.87-1.31l4.16,1.05,5.04-4.49.34-.41-9.46-4.06,2.26-1.83.53-.11c3.8.61,7.58,1.41,11.37,2.01l8.22-6.76c2.08-1.26,4.02-.03,3.24,2.46-.31,1-.86,1.36-1.6,2.02-2.22,1.95-4.58,3.75-6.81,5.69l.25,6.04c.15,1.99.27,3.99.34,5.98-.79.83-1.66,1.6-2.55,2.32Z"/>
    </g>
  </g>
</svg>